<mxfile host="app.diagrams.net" modified="2024-05-18T09:36:15.756Z" agent="Mozilla/5.0 (Windows NT 10.0; Win64; x64) AppleWebKit/537.36 (KHTML, like Gecko) Chrome/123.0.0.0 Safari/537.36 OPR/109.0.0.0 (Edition Yx 08)" etag="flkyM8HIJhaV5NQDvmyb" version="24.4.4" type="device">
  <diagram name="Страница — 1" id="qiLK4TDkztnywe2xz11D">
    <mxGraphModel dx="5979" dy="3301" grid="1" gridSize="10" guides="1" tooltips="1" connect="1" arrows="1" fold="1" page="1" pageScale="1" pageWidth="827" pageHeight="1169" math="0" shadow="0">
      <root>
        <mxCell id="0" />
        <mxCell id="1" parent="0" />
        <mxCell id="GWD56itQVeRUP17GlNMs-5" value="&lt;i&gt;Unit&lt;/i&gt;" style="swimlane;fontStyle=1;align=center;verticalAlign=top;childLayout=stackLayout;horizontal=1;startSize=26;horizontalStack=0;resizeParent=1;resizeParentMax=0;resizeLast=0;collapsible=1;marginBottom=0;whiteSpace=wrap;html=1;" parent="1" vertex="1">
          <mxGeometry x="1130" y="-540" width="330" height="220" as="geometry" />
        </mxCell>
        <mxCell id="GWD56itQVeRUP17GlNMs-6" value="+ Flags: unsigned int&lt;div&gt;&lt;br&gt;&lt;/div&gt;" style="text;strokeColor=none;fillColor=none;align=left;verticalAlign=top;spacingLeft=4;spacingRight=4;overflow=hidden;rotatable=0;points=[[0,0.5],[1,0.5]];portConstraint=eastwest;whiteSpace=wrap;html=1;" parent="GWD56itQVeRUP17GlNMs-5" vertex="1">
          <mxGeometry y="26" width="330" height="26" as="geometry" />
        </mxCell>
        <mxCell id="GWD56itQVeRUP17GlNMs-7" value="" style="line;strokeWidth=1;fillColor=none;align=left;verticalAlign=middle;spacingTop=-1;spacingLeft=3;spacingRight=3;rotatable=0;labelPosition=right;points=[];portConstraint=eastwest;strokeColor=inherit;" parent="GWD56itQVeRUP17GlNMs-5" vertex="1">
          <mxGeometry y="52" width="330" height="8" as="geometry" />
        </mxCell>
        <mxCell id="GWD56itQVeRUP17GlNMs-11" value="+ &lt;i&gt;virtual ~Unit() = default&lt;/i&gt;" style="text;strokeColor=none;fillColor=none;align=left;verticalAlign=top;spacingLeft=4;spacingRight=4;overflow=hidden;rotatable=0;points=[[0,0.5],[1,0.5]];portConstraint=eastwest;whiteSpace=wrap;html=1;" parent="GWD56itQVeRUP17GlNMs-5" vertex="1">
          <mxGeometry y="60" width="330" height="40" as="geometry" />
        </mxCell>
        <mxCell id="GWD56itQVeRUP17GlNMs-8" value="+ &lt;i&gt;add(shared_ptr&amp;lt;Unit&amp;gt;, unsigned int): virtual void&lt;/i&gt;" style="text;strokeColor=none;fillColor=none;align=left;verticalAlign=top;spacingLeft=4;spacingRight=4;overflow=hidden;rotatable=0;points=[[0,0.5],[1,0.5]];portConstraint=eastwest;whiteSpace=wrap;html=1;" parent="GWD56itQVeRUP17GlNMs-5" vertex="1">
          <mxGeometry y="100" width="330" height="40" as="geometry" />
        </mxCell>
        <mxCell id="GWD56itQVeRUP17GlNMs-9" value="&lt;i&gt;+ compile(level: unsigned int, access: string): virtual string&lt;/i&gt;" style="text;strokeColor=none;fillColor=none;align=left;verticalAlign=top;spacingLeft=4;spacingRight=4;overflow=hidden;rotatable=0;points=[[0,0.5],[1,0.5]];portConstraint=eastwest;whiteSpace=wrap;html=1;" parent="GWD56itQVeRUP17GlNMs-5" vertex="1">
          <mxGeometry y="140" width="330" height="40" as="geometry" />
        </mxCell>
        <mxCell id="GWD56itQVeRUP17GlNMs-10" value="&lt;i&gt;# generateShift(level: unsigned int): virtual string&lt;/i&gt;" style="text;strokeColor=none;fillColor=none;align=left;verticalAlign=top;spacingLeft=4;spacingRight=4;overflow=hidden;rotatable=0;points=[[0,0.5],[1,0.5]];portConstraint=eastwest;whiteSpace=wrap;html=1;" parent="GWD56itQVeRUP17GlNMs-5" vertex="1">
          <mxGeometry y="180" width="330" height="40" as="geometry" />
        </mxCell>
        <mxCell id="GWD56itQVeRUP17GlNMs-12" value="&lt;i&gt;ClassUnit&lt;/i&gt;" style="swimlane;fontStyle=1;align=center;verticalAlign=top;childLayout=stackLayout;horizontal=1;startSize=26;horizontalStack=0;resizeParent=1;resizeParentMax=0;resizeLast=0;collapsible=1;marginBottom=0;whiteSpace=wrap;html=1;" parent="1" vertex="1">
          <mxGeometry x="164" y="-120" width="280" height="182" as="geometry" />
        </mxCell>
        <mxCell id="GWD56itQVeRUP17GlNMs-13" value="+ AccessModifier" style="text;strokeColor=none;fillColor=none;align=left;verticalAlign=top;spacingLeft=4;spacingRight=4;overflow=hidden;rotatable=0;points=[[0,0.5],[1,0.5]];portConstraint=eastwest;whiteSpace=wrap;html=1;" parent="GWD56itQVeRUP17GlNMs-12" vertex="1">
          <mxGeometry y="26" width="280" height="26" as="geometry" />
        </mxCell>
        <mxCell id="GWD56itQVeRUP17GlNMs-14" value="+ ACCESS_MODIFIERS: const vector&amp;lt;string&amp;gt;" style="text;strokeColor=none;fillColor=none;align=left;verticalAlign=top;spacingLeft=4;spacingRight=4;overflow=hidden;rotatable=0;points=[[0,0.5],[1,0.5]];portConstraint=eastwest;whiteSpace=wrap;html=1;" parent="GWD56itQVeRUP17GlNMs-12" vertex="1">
          <mxGeometry y="52" width="280" height="26" as="geometry" />
        </mxCell>
        <mxCell id="GWD56itQVeRUP17GlNMs-39" value="+ ClassUnit( const std::string&amp;amp; name )" style="text;strokeColor=none;fillColor=none;align=left;verticalAlign=top;spacingLeft=4;spacingRight=4;overflow=hidden;rotatable=0;points=[[0,0.5],[1,0.5]];portConstraint=eastwest;whiteSpace=wrap;html=1;" parent="GWD56itQVeRUP17GlNMs-12" vertex="1">
          <mxGeometry y="78" width="280" height="26" as="geometry" />
        </mxCell>
        <mxCell id="GWD56itQVeRUP17GlNMs-15" value="# m_name: string" style="text;strokeColor=none;fillColor=none;align=left;verticalAlign=top;spacingLeft=4;spacingRight=4;overflow=hidden;rotatable=0;points=[[0,0.5],[1,0.5]];portConstraint=eastwest;whiteSpace=wrap;html=1;" parent="GWD56itQVeRUP17GlNMs-12" vertex="1">
          <mxGeometry y="104" width="280" height="26" as="geometry" />
        </mxCell>
        <mxCell id="GWD56itQVeRUP17GlNMs-16" value="# Fields: vector&amp;lt;shared_ptr&amp;lt;Unit&amp;gt;&amp;gt;" style="text;strokeColor=none;fillColor=none;align=left;verticalAlign=top;spacingLeft=4;spacingRight=4;overflow=hidden;rotatable=0;points=[[0,0.5],[1,0.5]];portConstraint=eastwest;whiteSpace=wrap;html=1;" parent="GWD56itQVeRUP17GlNMs-12" vertex="1">
          <mxGeometry y="130" width="280" height="26" as="geometry" />
        </mxCell>
        <mxCell id="GWD56itQVeRUP17GlNMs-17" value="# m_fields: vector&amp;lt;Fields&amp;gt;&lt;span style=&quot;font-family: monospace; font-size: 0px; text-wrap: nowrap;&quot;&gt;%3CmxGraphModel%3E%3Croot%3E%3CmxCell%20id%3D%220%22%2F%3E%3CmxCell%20id%3D%221%22%20parent%3D%220%22%2F%3E%3CmxCell%20id%3D%222%22%20value%3D%22%2B%20ACCESS_MODIFIERS%3A%20vector%26amp%3Blt%3Bstring%26amp%3Bgt%3B%22%20style%3D%22text%3BstrokeColor%3Dnone%3BfillColor%3Dnone%3Balign%3Dleft%3BverticalAlign%3Dtop%3BspacingLeft%3D4%3BspacingRight%3D4%3Boverflow%3Dhidden%3Brotatable%3D0%3Bpoints%3D%5B%5B0%2C0.5%5D%2C%5B1%2C0.5%5D%5D%3BportConstraint%3Deastwest%3BwhiteSpace%3Dwrap%3Bhtml%3D1%3B%22%20vertex%3D%221%22%20parent%3D%221%22%3E%3CmxGeometry%20x%3D%22300%22%20y%3D%22472%22%20width%3D%22250%22%20height%3D%2226%22%20as%3D%22geometry%22%2F%3E%3C%2FmxCell%3E%3C%2Froot%3E%3C%2FmxGraphModel%3E&lt;/span&gt;" style="text;strokeColor=none;fillColor=none;align=left;verticalAlign=top;spacingLeft=4;spacingRight=4;overflow=hidden;rotatable=0;points=[[0,0.5],[1,0.5]];portConstraint=eastwest;whiteSpace=wrap;html=1;" parent="GWD56itQVeRUP17GlNMs-12" vertex="1">
          <mxGeometry y="156" width="280" height="26" as="geometry" />
        </mxCell>
        <mxCell id="GWD56itQVeRUP17GlNMs-18" value="" style="endArrow=block;endSize=16;endFill=0;html=1;rounded=0;exitX=0.46;exitY=-0.013;exitDx=0;exitDy=0;exitPerimeter=0;" parent="1" source="GWD56itQVeRUP17GlNMs-12" target="GWD56itQVeRUP17GlNMs-5" edge="1">
          <mxGeometry width="160" relative="1" as="geometry">
            <mxPoint x="510" y="-130" as="sourcePoint" />
            <mxPoint x="670" y="-130" as="targetPoint" />
          </mxGeometry>
        </mxCell>
        <mxCell id="GWD56itQVeRUP17GlNMs-19" value="&lt;b&gt;CPlusClass&lt;/b&gt;" style="swimlane;fontStyle=0;childLayout=stackLayout;horizontal=1;startSize=26;fillColor=none;horizontalStack=0;resizeParent=1;resizeParentMax=0;resizeLast=0;collapsible=1;marginBottom=0;whiteSpace=wrap;html=1;" parent="1" vertex="1">
          <mxGeometry x="-150" y="240" width="280" height="120" as="geometry" />
        </mxCell>
        <mxCell id="GWD56itQVeRUP17GlNMs-20" value="+ add(unit: shared_ptr&amp;lt;Unit&amp;gt;, flags: Flags): void" style="text;strokeColor=none;fillColor=none;align=left;verticalAlign=top;spacingLeft=4;spacingRight=4;overflow=hidden;rotatable=0;points=[[0,0.5],[1,0.5]];portConstraint=eastwest;whiteSpace=wrap;html=1;" parent="GWD56itQVeRUP17GlNMs-19" vertex="1">
          <mxGeometry y="26" width="280" height="44" as="geometry" />
        </mxCell>
        <mxCell id="GWD56itQVeRUP17GlNMs-21" value="+ compile(level: unsigned int, access: string): string" style="text;strokeColor=none;fillColor=none;align=left;verticalAlign=top;spacingLeft=4;spacingRight=4;overflow=hidden;rotatable=0;points=[[0,0.5],[1,0.5]];portConstraint=eastwest;whiteSpace=wrap;html=1;" parent="GWD56itQVeRUP17GlNMs-19" vertex="1">
          <mxGeometry y="70" width="280" height="50" as="geometry" />
        </mxCell>
        <mxCell id="GWD56itQVeRUP17GlNMs-22" value="&lt;b&gt;CSharpClass&lt;/b&gt;" style="swimlane;fontStyle=0;childLayout=stackLayout;horizontal=1;startSize=26;fillColor=none;horizontalStack=0;resizeParent=1;resizeParentMax=0;resizeLast=0;collapsible=1;marginBottom=0;whiteSpace=wrap;html=1;" parent="1" vertex="1">
          <mxGeometry x="140" y="240" width="260" height="120" as="geometry" />
        </mxCell>
        <mxCell id="GWD56itQVeRUP17GlNMs-23" value="+ add(unit: shared_ptr&amp;lt;Unit&amp;gt;, flags: Flags): void" style="text;strokeColor=none;fillColor=none;align=left;verticalAlign=top;spacingLeft=4;spacingRight=4;overflow=hidden;rotatable=0;points=[[0,0.5],[1,0.5]];portConstraint=eastwest;whiteSpace=wrap;html=1;" parent="GWD56itQVeRUP17GlNMs-22" vertex="1">
          <mxGeometry y="26" width="260" height="44" as="geometry" />
        </mxCell>
        <mxCell id="GWD56itQVeRUP17GlNMs-24" value="+ compile(level: unsigned int, access: string): string" style="text;strokeColor=none;fillColor=none;align=left;verticalAlign=top;spacingLeft=4;spacingRight=4;overflow=hidden;rotatable=0;points=[[0,0.5],[1,0.5]];portConstraint=eastwest;whiteSpace=wrap;html=1;" parent="GWD56itQVeRUP17GlNMs-22" vertex="1">
          <mxGeometry y="70" width="260" height="50" as="geometry" />
        </mxCell>
        <mxCell id="GWD56itQVeRUP17GlNMs-25" value="&lt;b&gt;JavaClass&lt;/b&gt;" style="swimlane;fontStyle=0;childLayout=stackLayout;horizontal=1;startSize=26;fillColor=none;horizontalStack=0;resizeParent=1;resizeParentMax=0;resizeLast=0;collapsible=1;marginBottom=0;whiteSpace=wrap;html=1;" parent="1" vertex="1">
          <mxGeometry x="414" y="240" width="276" height="120" as="geometry" />
        </mxCell>
        <mxCell id="GWD56itQVeRUP17GlNMs-26" value="+ add(unit: shared_ptr&amp;lt;Unit&amp;gt;, flags: Flags): void" style="text;strokeColor=none;fillColor=none;align=left;verticalAlign=top;spacingLeft=4;spacingRight=4;overflow=hidden;rotatable=0;points=[[0,0.5],[1,0.5]];portConstraint=eastwest;whiteSpace=wrap;html=1;" parent="GWD56itQVeRUP17GlNMs-25" vertex="1">
          <mxGeometry y="26" width="276" height="44" as="geometry" />
        </mxCell>
        <mxCell id="GWD56itQVeRUP17GlNMs-27" value="+ compile(level: unsigned int, access: string): string" style="text;strokeColor=none;fillColor=none;align=left;verticalAlign=top;spacingLeft=4;spacingRight=4;overflow=hidden;rotatable=0;points=[[0,0.5],[1,0.5]];portConstraint=eastwest;whiteSpace=wrap;html=1;" parent="GWD56itQVeRUP17GlNMs-25" vertex="1">
          <mxGeometry y="70" width="276" height="50" as="geometry" />
        </mxCell>
        <mxCell id="GWD56itQVeRUP17GlNMs-28" value="" style="endArrow=block;endSize=16;endFill=0;html=1;rounded=0;exitX=0.5;exitY=0;exitDx=0;exitDy=0;" parent="1" source="GWD56itQVeRUP17GlNMs-19" target="GWD56itQVeRUP17GlNMs-12" edge="1">
          <mxGeometry width="160" relative="1" as="geometry">
            <mxPoint x="-180" y="-14" as="sourcePoint" />
            <mxPoint x="210" y="-220" as="targetPoint" />
          </mxGeometry>
        </mxCell>
        <mxCell id="GWD56itQVeRUP17GlNMs-29" value="" style="endArrow=block;endSize=16;endFill=0;html=1;rounded=0;exitX=0.43;exitY=-0.013;exitDx=0;exitDy=0;exitPerimeter=0;" parent="1" source="GWD56itQVeRUP17GlNMs-22" target="GWD56itQVeRUP17GlNMs-12" edge="1">
          <mxGeometry width="160" relative="1" as="geometry">
            <mxPoint x="79" y="120" as="sourcePoint" />
            <mxPoint x="186" y="46" as="targetPoint" />
          </mxGeometry>
        </mxCell>
        <mxCell id="GWD56itQVeRUP17GlNMs-30" value="" style="endArrow=block;endSize=16;endFill=0;html=1;rounded=0;exitX=0.5;exitY=0;exitDx=0;exitDy=0;" parent="1" source="GWD56itQVeRUP17GlNMs-25" target="GWD56itQVeRUP17GlNMs-12" edge="1">
          <mxGeometry width="160" relative="1" as="geometry">
            <mxPoint x="520" y="74" as="sourcePoint" />
            <mxPoint x="627" as="targetPoint" />
          </mxGeometry>
        </mxCell>
        <mxCell id="GWD56itQVeRUP17GlNMs-47" value="" style="endArrow=block;endSize=16;endFill=0;html=1;rounded=0;exitX=0.446;exitY=0.011;exitDx=0;exitDy=0;exitPerimeter=0;" parent="1" source="GWD56itQVeRUP17GlNMs-58" target="GWD56itQVeRUP17GlNMs-5" edge="1">
          <mxGeometry width="160" relative="1" as="geometry">
            <mxPoint x="1077" y="-90" as="sourcePoint" />
            <mxPoint x="837" y="-309" as="targetPoint" />
          </mxGeometry>
        </mxCell>
        <mxCell id="GWD56itQVeRUP17GlNMs-58" value="&lt;i&gt;MethodUnit&lt;/i&gt;" style="swimlane;fontStyle=1;align=center;verticalAlign=top;childLayout=stackLayout;horizontal=1;startSize=26;horizontalStack=0;resizeParent=1;resizeParentMax=0;resizeLast=0;collapsible=1;marginBottom=0;whiteSpace=wrap;html=1;" parent="1" vertex="1">
          <mxGeometry x="980" y="-120" width="440" height="234" as="geometry" />
        </mxCell>
        <mxCell id="GWD56itQVeRUP17GlNMs-59" value="+ Modifier" style="text;strokeColor=none;fillColor=none;align=left;verticalAlign=top;spacingLeft=4;spacingRight=4;overflow=hidden;rotatable=0;points=[[0,0.5],[1,0.5]];portConstraint=eastwest;whiteSpace=wrap;html=1;" parent="GWD56itQVeRUP17GlNMs-58" vertex="1">
          <mxGeometry y="26" width="440" height="26" as="geometry" />
        </mxCell>
        <mxCell id="GWD56itQVeRUP17GlNMs-66" value="+ MethodUnit(string&amp;amp; name, string&amp;amp; returnType, Flags flags )" style="text;strokeColor=none;fillColor=none;align=left;verticalAlign=top;spacingLeft=4;spacingRight=4;overflow=hidden;rotatable=0;points=[[0,0.5],[1,0.5]];portConstraint=eastwest;whiteSpace=wrap;html=1;" parent="GWD56itQVeRUP17GlNMs-58" vertex="1">
          <mxGeometry y="52" width="440" height="26" as="geometry" />
        </mxCell>
        <mxCell id="GWD56itQVeRUP17GlNMs-60" value="# m_name: string" style="text;strokeColor=none;fillColor=none;align=left;verticalAlign=top;spacingLeft=4;spacingRight=4;overflow=hidden;rotatable=0;points=[[0,0.5],[1,0.5]];portConstraint=eastwest;whiteSpace=wrap;html=1;" parent="GWD56itQVeRUP17GlNMs-58" vertex="1">
          <mxGeometry y="78" width="440" height="26" as="geometry" />
        </mxCell>
        <mxCell id="GWD56itQVeRUP17GlNMs-61" value="# m_returnType: string" style="text;strokeColor=none;fillColor=none;align=left;verticalAlign=top;spacingLeft=4;spacingRight=4;overflow=hidden;rotatable=0;points=[[0,0.5],[1,0.5]];portConstraint=eastwest;whiteSpace=wrap;html=1;" parent="GWD56itQVeRUP17GlNMs-58" vertex="1">
          <mxGeometry y="104" width="440" height="26" as="geometry" />
        </mxCell>
        <mxCell id="GWD56itQVeRUP17GlNMs-62" value="# m_flags: Flags&lt;div&gt;&lt;br&gt;&lt;/div&gt;" style="text;strokeColor=none;fillColor=none;align=left;verticalAlign=top;spacingLeft=4;spacingRight=4;overflow=hidden;rotatable=0;points=[[0,0.5],[1,0.5]];portConstraint=eastwest;whiteSpace=wrap;html=1;" parent="GWD56itQVeRUP17GlNMs-58" vertex="1">
          <mxGeometry y="130" width="440" height="26" as="geometry" />
        </mxCell>
        <mxCell id="GWD56itQVeRUP17GlNMs-63" value="# m_body: vector&amp;lt;shared_ptr&amp;lt;Unit&amp;gt;&amp;gt;" style="text;strokeColor=none;fillColor=none;align=left;verticalAlign=top;spacingLeft=4;spacingRight=4;overflow=hidden;rotatable=0;points=[[0,0.5],[1,0.5]];portConstraint=eastwest;whiteSpace=wrap;html=1;" parent="GWD56itQVeRUP17GlNMs-58" vertex="1">
          <mxGeometry y="156" width="440" height="26" as="geometry" />
        </mxCell>
        <mxCell id="GWD56itQVeRUP17GlNMs-64" value="" style="line;strokeWidth=1;fillColor=none;align=left;verticalAlign=middle;spacingTop=-1;spacingLeft=3;spacingRight=3;rotatable=0;labelPosition=right;points=[];portConstraint=eastwest;strokeColor=inherit;" parent="GWD56itQVeRUP17GlNMs-58" vertex="1">
          <mxGeometry y="182" width="440" height="8" as="geometry" />
        </mxCell>
        <mxCell id="GWD56itQVeRUP17GlNMs-65" value="+ add(unit: shared_ptr&amp;lt;Unit&amp;gt;, flags: Flags): void" style="text;strokeColor=none;fillColor=none;align=left;verticalAlign=top;spacingLeft=4;spacingRight=4;overflow=hidden;rotatable=0;points=[[0,0.5],[1,0.5]];portConstraint=eastwest;whiteSpace=wrap;html=1;" parent="GWD56itQVeRUP17GlNMs-58" vertex="1">
          <mxGeometry y="190" width="440" height="44" as="geometry" />
        </mxCell>
        <mxCell id="GWD56itQVeRUP17GlNMs-72" value="&lt;b&gt;CPlusMethod&lt;/b&gt;" style="swimlane;fontStyle=0;childLayout=stackLayout;horizontal=1;startSize=26;fillColor=none;horizontalStack=0;resizeParent=1;resizeParentMax=0;resizeLast=0;collapsible=1;marginBottom=0;whiteSpace=wrap;html=1;" parent="1" vertex="1">
          <mxGeometry x="880" y="240" width="210" height="76" as="geometry" />
        </mxCell>
        <mxCell id="GWD56itQVeRUP17GlNMs-73" value="+ compile(level: unsigned int, access: string): string" style="text;strokeColor=none;fillColor=none;align=left;verticalAlign=top;spacingLeft=4;spacingRight=4;overflow=hidden;rotatable=0;points=[[0,0.5],[1,0.5]];portConstraint=eastwest;whiteSpace=wrap;html=1;" parent="GWD56itQVeRUP17GlNMs-72" vertex="1">
          <mxGeometry y="26" width="210" height="50" as="geometry" />
        </mxCell>
        <mxCell id="GWD56itQVeRUP17GlNMs-74" value="&lt;b&gt;CSharpMethod&lt;/b&gt;" style="swimlane;fontStyle=0;childLayout=stackLayout;horizontal=1;startSize=26;fillColor=none;horizontalStack=0;resizeParent=1;resizeParentMax=0;resizeLast=0;collapsible=1;marginBottom=0;whiteSpace=wrap;html=1;" parent="1" vertex="1">
          <mxGeometry x="1100" y="240" width="210" height="76" as="geometry" />
        </mxCell>
        <mxCell id="GWD56itQVeRUP17GlNMs-75" value="+ compile(level: unsigned int, access: string): string" style="text;strokeColor=none;fillColor=none;align=left;verticalAlign=top;spacingLeft=4;spacingRight=4;overflow=hidden;rotatable=0;points=[[0,0.5],[1,0.5]];portConstraint=eastwest;whiteSpace=wrap;html=1;" parent="GWD56itQVeRUP17GlNMs-74" vertex="1">
          <mxGeometry y="26" width="210" height="50" as="geometry" />
        </mxCell>
        <mxCell id="GWD56itQVeRUP17GlNMs-76" value="&lt;b&gt;JavaMethod&lt;/b&gt;" style="swimlane;fontStyle=0;childLayout=stackLayout;horizontal=1;startSize=26;fillColor=none;horizontalStack=0;resizeParent=1;resizeParentMax=0;resizeLast=0;collapsible=1;marginBottom=0;whiteSpace=wrap;html=1;" parent="1" vertex="1">
          <mxGeometry x="1330" y="240" width="210" height="76" as="geometry" />
        </mxCell>
        <mxCell id="GWD56itQVeRUP17GlNMs-77" value="+ compile(level: unsigned int, access: string): string" style="text;strokeColor=none;fillColor=none;align=left;verticalAlign=top;spacingLeft=4;spacingRight=4;overflow=hidden;rotatable=0;points=[[0,0.5],[1,0.5]];portConstraint=eastwest;whiteSpace=wrap;html=1;" parent="GWD56itQVeRUP17GlNMs-76" vertex="1">
          <mxGeometry y="26" width="210" height="50" as="geometry" />
        </mxCell>
        <mxCell id="GWD56itQVeRUP17GlNMs-78" value="" style="endArrow=block;endSize=16;endFill=0;html=1;rounded=0;" parent="1" source="GWD56itQVeRUP17GlNMs-72" target="GWD56itQVeRUP17GlNMs-58" edge="1">
          <mxGeometry width="160" relative="1" as="geometry">
            <mxPoint x="894" y="208" as="sourcePoint" />
            <mxPoint x="730" y="30" as="targetPoint" />
          </mxGeometry>
        </mxCell>
        <mxCell id="GWD56itQVeRUP17GlNMs-79" value="" style="endArrow=block;endSize=16;endFill=0;html=1;rounded=0;" parent="1" source="GWD56itQVeRUP17GlNMs-74" target="GWD56itQVeRUP17GlNMs-58" edge="1">
          <mxGeometry width="160" relative="1" as="geometry">
            <mxPoint x="1192" y="238" as="sourcePoint" />
            <mxPoint x="1086" y="124" as="targetPoint" />
          </mxGeometry>
        </mxCell>
        <mxCell id="GWD56itQVeRUP17GlNMs-80" value="" style="endArrow=block;endSize=16;endFill=0;html=1;rounded=0;" parent="1" source="GWD56itQVeRUP17GlNMs-76" target="GWD56itQVeRUP17GlNMs-58" edge="1">
          <mxGeometry width="160" relative="1" as="geometry">
            <mxPoint x="1202" y="248" as="sourcePoint" />
            <mxPoint x="1206" y="124" as="targetPoint" />
          </mxGeometry>
        </mxCell>
        <mxCell id="GWD56itQVeRUP17GlNMs-81" value="&lt;b&gt;&lt;i&gt;PrintOperatorUnit&lt;/i&gt;&lt;/b&gt;" style="swimlane;fontStyle=0;childLayout=stackLayout;horizontal=1;startSize=26;fillColor=none;horizontalStack=0;resizeParent=1;resizeParentMax=0;resizeLast=0;collapsible=1;marginBottom=0;whiteSpace=wrap;html=1;" parent="1" vertex="1">
          <mxGeometry x="1880" y="-120" width="270" height="78" as="geometry" />
        </mxCell>
        <mxCell id="GWD56itQVeRUP17GlNMs-82" value="+ PrintOperatorUnit( string&amp;amp; text )" style="text;strokeColor=none;fillColor=none;align=left;verticalAlign=top;spacingLeft=4;spacingRight=4;overflow=hidden;rotatable=0;points=[[0,0.5],[1,0.5]];portConstraint=eastwest;whiteSpace=wrap;html=1;" parent="GWD56itQVeRUP17GlNMs-81" vertex="1">
          <mxGeometry y="26" width="270" height="26" as="geometry" />
        </mxCell>
        <mxCell id="GWD56itQVeRUP17GlNMs-83" value="# m_text: string" style="text;strokeColor=none;fillColor=none;align=left;verticalAlign=top;spacingLeft=4;spacingRight=4;overflow=hidden;rotatable=0;points=[[0,0.5],[1,0.5]];portConstraint=eastwest;whiteSpace=wrap;html=1;" parent="GWD56itQVeRUP17GlNMs-81" vertex="1">
          <mxGeometry y="52" width="270" height="26" as="geometry" />
        </mxCell>
        <mxCell id="GWD56itQVeRUP17GlNMs-84" value="&lt;b&gt;CPlusPrintOperator&lt;/b&gt;" style="swimlane;fontStyle=0;childLayout=stackLayout;horizontal=1;startSize=26;fillColor=none;horizontalStack=0;resizeParent=1;resizeParentMax=0;resizeLast=0;collapsible=1;marginBottom=0;whiteSpace=wrap;html=1;" parent="1" vertex="1">
          <mxGeometry x="1810" y="240" width="230" height="124" as="geometry" />
        </mxCell>
        <mxCell id="GWD56itQVeRUP17GlNMs-85" value="+ CPlusPrintOperator( string&amp;amp; text )" style="text;strokeColor=none;fillColor=none;align=left;verticalAlign=top;spacingLeft=4;spacingRight=4;overflow=hidden;rotatable=0;points=[[0,0.5],[1,0.5]];portConstraint=eastwest;whiteSpace=wrap;html=1;" parent="GWD56itQVeRUP17GlNMs-84" vertex="1">
          <mxGeometry y="26" width="230" height="34" as="geometry" />
        </mxCell>
        <mxCell id="GWD56itQVeRUP17GlNMs-90" value="+ compile(level: unsigned int): string" style="text;strokeColor=none;fillColor=none;align=left;verticalAlign=top;spacingLeft=4;spacingRight=4;overflow=hidden;rotatable=0;points=[[0,0.5],[1,0.5]];portConstraint=eastwest;whiteSpace=wrap;html=1;" parent="GWD56itQVeRUP17GlNMs-84" vertex="1">
          <mxGeometry y="60" width="230" height="64" as="geometry" />
        </mxCell>
        <mxCell id="GWD56itQVeRUP17GlNMs-86" value="&lt;b&gt;CSharpPrintOperator&lt;/b&gt;" style="swimlane;fontStyle=0;childLayout=stackLayout;horizontal=1;startSize=26;fillColor=none;horizontalStack=0;resizeParent=1;resizeParentMax=0;resizeLast=0;collapsible=1;marginBottom=0;whiteSpace=wrap;html=1;" parent="1" vertex="1">
          <mxGeometry x="2060" y="240" width="210" height="124" as="geometry" />
        </mxCell>
        <mxCell id="GWD56itQVeRUP17GlNMs-87" value="+ CSharpPrintOperator(string&amp;amp; text )" style="text;strokeColor=none;fillColor=none;align=left;verticalAlign=top;spacingLeft=4;spacingRight=4;overflow=hidden;rotatable=0;points=[[0,0.5],[1,0.5]];portConstraint=eastwest;whiteSpace=wrap;html=1;" parent="GWD56itQVeRUP17GlNMs-86" vertex="1">
          <mxGeometry y="26" width="210" height="34" as="geometry" />
        </mxCell>
        <mxCell id="GWD56itQVeRUP17GlNMs-91" value="+ compile(level: unsigned int): string" style="text;strokeColor=none;fillColor=none;align=left;verticalAlign=top;spacingLeft=4;spacingRight=4;overflow=hidden;rotatable=0;points=[[0,0.5],[1,0.5]];portConstraint=eastwest;whiteSpace=wrap;html=1;" parent="GWD56itQVeRUP17GlNMs-86" vertex="1">
          <mxGeometry y="60" width="210" height="64" as="geometry" />
        </mxCell>
        <mxCell id="GWD56itQVeRUP17GlNMs-88" value="&lt;b&gt;JavaPrintOperator&lt;/b&gt;" style="swimlane;fontStyle=0;childLayout=stackLayout;horizontal=1;startSize=26;fillColor=none;horizontalStack=0;resizeParent=1;resizeParentMax=0;resizeLast=0;collapsible=1;marginBottom=0;whiteSpace=wrap;html=1;" parent="1" vertex="1">
          <mxGeometry x="2290" y="240" width="220" height="124" as="geometry" />
        </mxCell>
        <mxCell id="GWD56itQVeRUP17GlNMs-89" value="+ CSharpPrintOperator(string&amp;amp; text&amp;nbsp;" style="text;strokeColor=none;fillColor=none;align=left;verticalAlign=top;spacingLeft=4;spacingRight=4;overflow=hidden;rotatable=0;points=[[0,0.5],[1,0.5]];portConstraint=eastwest;whiteSpace=wrap;html=1;" parent="GWD56itQVeRUP17GlNMs-88" vertex="1">
          <mxGeometry y="26" width="220" height="34" as="geometry" />
        </mxCell>
        <mxCell id="GWD56itQVeRUP17GlNMs-92" value="+ compile(level: unsigned int): string" style="text;strokeColor=none;fillColor=none;align=left;verticalAlign=top;spacingLeft=4;spacingRight=4;overflow=hidden;rotatable=0;points=[[0,0.5],[1,0.5]];portConstraint=eastwest;whiteSpace=wrap;html=1;" parent="GWD56itQVeRUP17GlNMs-88" vertex="1">
          <mxGeometry y="60" width="220" height="64" as="geometry" />
        </mxCell>
        <mxCell id="GWD56itQVeRUP17GlNMs-93" value="" style="endArrow=block;endSize=16;endFill=0;html=1;rounded=0;" parent="1" source="GWD56itQVeRUP17GlNMs-81" target="GWD56itQVeRUP17GlNMs-5" edge="1">
          <mxGeometry width="160" relative="1" as="geometry">
            <mxPoint x="1186" y="-107" as="sourcePoint" />
            <mxPoint x="1263" y="-310" as="targetPoint" />
          </mxGeometry>
        </mxCell>
        <mxCell id="GWD56itQVeRUP17GlNMs-94" value="" style="endArrow=block;endSize=16;endFill=0;html=1;rounded=0;" parent="1" source="GWD56itQVeRUP17GlNMs-84" target="GWD56itQVeRUP17GlNMs-81" edge="1">
          <mxGeometry width="160" relative="1" as="geometry">
            <mxPoint x="1935" y="136" as="sourcePoint" />
            <mxPoint x="1830" y="10" as="targetPoint" />
          </mxGeometry>
        </mxCell>
        <mxCell id="GWD56itQVeRUP17GlNMs-95" value="" style="endArrow=block;endSize=16;endFill=0;html=1;rounded=0;" parent="1" source="GWD56itQVeRUP17GlNMs-86" target="GWD56itQVeRUP17GlNMs-81" edge="1">
          <mxGeometry width="160" relative="1" as="geometry">
            <mxPoint x="1950" y="250" as="sourcePoint" />
            <mxPoint x="2016" y="-32" as="targetPoint" />
          </mxGeometry>
        </mxCell>
        <mxCell id="GWD56itQVeRUP17GlNMs-96" value="" style="endArrow=block;endSize=16;endFill=0;html=1;rounded=0;" parent="1" source="GWD56itQVeRUP17GlNMs-88" target="GWD56itQVeRUP17GlNMs-81" edge="1">
          <mxGeometry width="160" relative="1" as="geometry">
            <mxPoint x="1960" y="260" as="sourcePoint" />
            <mxPoint x="2026" y="-22" as="targetPoint" />
          </mxGeometry>
        </mxCell>
        <mxCell id="GWD56itQVeRUP17GlNMs-97" value="&lt;b&gt;&lt;i&gt;AbstactFactory&lt;/i&gt;&lt;/b&gt;" style="swimlane;fontStyle=0;childLayout=stackLayout;horizontal=1;startSize=26;fillColor=none;horizontalStack=0;resizeParent=1;resizeParentMax=0;resizeLast=0;collapsible=1;marginBottom=0;whiteSpace=wrap;html=1;" parent="1" vertex="1">
          <mxGeometry x="-724" y="-80" width="310" height="218" as="geometry" />
        </mxCell>
        <mxCell id="GWD56itQVeRUP17GlNMs-101" value="&lt;i&gt;+ ~AbstactFactory()&lt;/i&gt;" style="text;strokeColor=none;fillColor=none;align=left;verticalAlign=top;spacingLeft=4;spacingRight=4;overflow=hidden;rotatable=0;points=[[0,0.5],[1,0.5]];portConstraint=eastwest;whiteSpace=wrap;html=1;" parent="GWD56itQVeRUP17GlNMs-97" vertex="1">
          <mxGeometry y="26" width="310" height="44" as="geometry" />
        </mxCell>
        <mxCell id="GWD56itQVeRUP17GlNMs-98" value="&lt;i&gt;+ CreateClass(name: string): shared_ptr&amp;lt;Unit&amp;gt;&lt;/i&gt;" style="text;strokeColor=none;fillColor=none;align=left;verticalAlign=top;spacingLeft=4;spacingRight=4;overflow=hidden;rotatable=0;points=[[0,0.5],[1,0.5]];portConstraint=eastwest;whiteSpace=wrap;html=1;" parent="GWD56itQVeRUP17GlNMs-97" vertex="1">
          <mxGeometry y="70" width="310" height="44" as="geometry" />
        </mxCell>
        <mxCell id="GWD56itQVeRUP17GlNMs-99" value="&lt;i&gt;+ CreateMethod(name: string, returnType: string, flags: unsigned int): shared_ptr&amp;lt;Unit&amp;gt;&lt;/i&gt;" style="text;strokeColor=none;fillColor=none;align=left;verticalAlign=top;spacingLeft=4;spacingRight=4;overflow=hidden;rotatable=0;points=[[0,0.5],[1,0.5]];portConstraint=eastwest;whiteSpace=wrap;html=1;" parent="GWD56itQVeRUP17GlNMs-97" vertex="1">
          <mxGeometry y="114" width="310" height="60" as="geometry" />
        </mxCell>
        <mxCell id="GWD56itQVeRUP17GlNMs-100" value="&lt;i&gt;+ CreatePrintOperator(text: string): shared_ptr&amp;lt;Unit&amp;gt;&lt;/i&gt;" style="text;strokeColor=none;fillColor=none;align=left;verticalAlign=top;spacingLeft=4;spacingRight=4;overflow=hidden;rotatable=0;points=[[0,0.5],[1,0.5]];portConstraint=eastwest;whiteSpace=wrap;html=1;" parent="GWD56itQVeRUP17GlNMs-97" vertex="1">
          <mxGeometry y="174" width="310" height="44" as="geometry" />
        </mxCell>
        <mxCell id="GWD56itQVeRUP17GlNMs-102" value="&lt;b style=&quot;&quot;&gt;CSharpFactory&lt;/b&gt;" style="swimlane;fontStyle=0;childLayout=stackLayout;horizontal=1;startSize=26;fillColor=none;horizontalStack=0;resizeParent=1;resizeParentMax=0;resizeLast=0;collapsible=1;marginBottom=0;whiteSpace=wrap;html=1;" parent="1" vertex="1">
          <mxGeometry x="-680" y="620" width="320" height="174" as="geometry" />
        </mxCell>
        <mxCell id="GWD56itQVeRUP17GlNMs-103" value="+ CreateClass(name: string): shared_ptr&amp;lt;Unit&amp;gt;" style="text;strokeColor=none;fillColor=none;align=left;verticalAlign=top;spacingLeft=4;spacingRight=4;overflow=hidden;rotatable=0;points=[[0,0.5],[1,0.5]];portConstraint=eastwest;whiteSpace=wrap;html=1;" parent="GWD56itQVeRUP17GlNMs-102" vertex="1">
          <mxGeometry y="26" width="320" height="44" as="geometry" />
        </mxCell>
        <mxCell id="GWD56itQVeRUP17GlNMs-104" value="+ CreateMethod(name: string, returnType: string, flags: unsigned int): shared_ptr&amp;lt;Unit&amp;gt;" style="text;strokeColor=none;fillColor=none;align=left;verticalAlign=top;spacingLeft=4;spacingRight=4;overflow=hidden;rotatable=0;points=[[0,0.5],[1,0.5]];portConstraint=eastwest;whiteSpace=wrap;html=1;" parent="GWD56itQVeRUP17GlNMs-102" vertex="1">
          <mxGeometry y="70" width="320" height="60" as="geometry" />
        </mxCell>
        <mxCell id="GWD56itQVeRUP17GlNMs-105" value="+ CreatePrintOperator(text: string): shared_ptr&amp;lt;Unit&amp;gt;" style="text;strokeColor=none;fillColor=none;align=left;verticalAlign=top;spacingLeft=4;spacingRight=4;overflow=hidden;rotatable=0;points=[[0,0.5],[1,0.5]];portConstraint=eastwest;whiteSpace=wrap;html=1;" parent="GWD56itQVeRUP17GlNMs-102" vertex="1">
          <mxGeometry y="130" width="320" height="44" as="geometry" />
        </mxCell>
        <mxCell id="GWD56itQVeRUP17GlNMs-106" value="&lt;b style=&quot;&quot;&gt;JavaFactory&lt;/b&gt;" style="swimlane;fontStyle=0;childLayout=stackLayout;horizontal=1;startSize=26;fillColor=none;horizontalStack=0;resizeParent=1;resizeParentMax=0;resizeLast=0;collapsible=1;marginBottom=0;whiteSpace=wrap;html=1;" parent="1" vertex="1">
          <mxGeometry x="-680" y="810" width="320" height="174" as="geometry" />
        </mxCell>
        <mxCell id="GWD56itQVeRUP17GlNMs-107" value="+ CreateClass(name: string): shared_ptr&amp;lt;Unit&amp;gt;" style="text;strokeColor=none;fillColor=none;align=left;verticalAlign=top;spacingLeft=4;spacingRight=4;overflow=hidden;rotatable=0;points=[[0,0.5],[1,0.5]];portConstraint=eastwest;whiteSpace=wrap;html=1;" parent="GWD56itQVeRUP17GlNMs-106" vertex="1">
          <mxGeometry y="26" width="320" height="44" as="geometry" />
        </mxCell>
        <mxCell id="GWD56itQVeRUP17GlNMs-108" value="+ CreateMethod(name: string, returnType: string, flags: unsigned int): shared_ptr&amp;lt;Unit&amp;gt;" style="text;strokeColor=none;fillColor=none;align=left;verticalAlign=top;spacingLeft=4;spacingRight=4;overflow=hidden;rotatable=0;points=[[0,0.5],[1,0.5]];portConstraint=eastwest;whiteSpace=wrap;html=1;" parent="GWD56itQVeRUP17GlNMs-106" vertex="1">
          <mxGeometry y="70" width="320" height="60" as="geometry" />
        </mxCell>
        <mxCell id="GWD56itQVeRUP17GlNMs-109" value="+ CreatePrintOperator(text: string): shared_ptr&amp;lt;Unit&amp;gt;" style="text;strokeColor=none;fillColor=none;align=left;verticalAlign=top;spacingLeft=4;spacingRight=4;overflow=hidden;rotatable=0;points=[[0,0.5],[1,0.5]];portConstraint=eastwest;whiteSpace=wrap;html=1;" parent="GWD56itQVeRUP17GlNMs-106" vertex="1">
          <mxGeometry y="130" width="320" height="44" as="geometry" />
        </mxCell>
        <mxCell id="GWD56itQVeRUP17GlNMs-110" value="&lt;b style=&quot;&quot;&gt;CPlusFactory&lt;/b&gt;" style="swimlane;fontStyle=0;childLayout=stackLayout;horizontal=1;startSize=26;fillColor=none;horizontalStack=0;resizeParent=1;resizeParentMax=0;resizeLast=0;collapsible=1;marginBottom=0;whiteSpace=wrap;html=1;" parent="1" vertex="1">
          <mxGeometry x="-680" y="430" width="320" height="174" as="geometry" />
        </mxCell>
        <mxCell id="GWD56itQVeRUP17GlNMs-111" value="+ CreateClass(name: string): shared_ptr&amp;lt;Unit&amp;gt;" style="text;strokeColor=none;fillColor=none;align=left;verticalAlign=top;spacingLeft=4;spacingRight=4;overflow=hidden;rotatable=0;points=[[0,0.5],[1,0.5]];portConstraint=eastwest;whiteSpace=wrap;html=1;" parent="GWD56itQVeRUP17GlNMs-110" vertex="1">
          <mxGeometry y="26" width="320" height="44" as="geometry" />
        </mxCell>
        <mxCell id="GWD56itQVeRUP17GlNMs-112" value="+ CreateMethod(name: string, returnType: string, flags: unsigned int): shared_ptr&amp;lt;Unit&amp;gt;" style="text;strokeColor=none;fillColor=none;align=left;verticalAlign=top;spacingLeft=4;spacingRight=4;overflow=hidden;rotatable=0;points=[[0,0.5],[1,0.5]];portConstraint=eastwest;whiteSpace=wrap;html=1;" parent="GWD56itQVeRUP17GlNMs-110" vertex="1">
          <mxGeometry y="70" width="320" height="60" as="geometry" />
        </mxCell>
        <mxCell id="GWD56itQVeRUP17GlNMs-113" value="+ CreatePrintOperator(text: string): shared_ptr&amp;lt;Unit&amp;gt;" style="text;strokeColor=none;fillColor=none;align=left;verticalAlign=top;spacingLeft=4;spacingRight=4;overflow=hidden;rotatable=0;points=[[0,0.5],[1,0.5]];portConstraint=eastwest;whiteSpace=wrap;html=1;" parent="GWD56itQVeRUP17GlNMs-110" vertex="1">
          <mxGeometry y="130" width="320" height="44" as="geometry" />
        </mxCell>
        <mxCell id="GWD56itQVeRUP17GlNMs-114" value="" style="endArrow=block;endSize=16;endFill=0;html=1;rounded=0;entryX=0;entryY=0.5;entryDx=0;entryDy=0;" parent="1" source="GWD56itQVeRUP17GlNMs-110" target="GWD56itQVeRUP17GlNMs-98" edge="1">
          <mxGeometry width="160" relative="1" as="geometry">
            <mxPoint x="-490" y="308" as="sourcePoint" />
            <mxPoint x="-282" y="130" as="targetPoint" />
            <Array as="points">
              <mxPoint x="-800" y="530" />
              <mxPoint x="-800" y="310" />
              <mxPoint x="-800" y="150" />
              <mxPoint x="-800" y="12" />
            </Array>
          </mxGeometry>
        </mxCell>
        <mxCell id="GWD56itQVeRUP17GlNMs-115" value="" style="endArrow=block;endSize=16;endFill=0;html=1;rounded=0;" parent="1" source="GWD56itQVeRUP17GlNMs-102" target="GWD56itQVeRUP17GlNMs-97" edge="1">
          <mxGeometry width="160" relative="1" as="geometry">
            <mxPoint x="-670" y="540" as="sourcePoint" />
            <mxPoint x="-714" y="22" as="targetPoint" />
            <Array as="points">
              <mxPoint x="-800" y="650" />
              <mxPoint x="-790" y="320" />
              <mxPoint x="-790" y="160" />
              <mxPoint x="-790" y="22" />
            </Array>
          </mxGeometry>
        </mxCell>
        <mxCell id="GWD56itQVeRUP17GlNMs-116" value="" style="endArrow=block;endSize=16;endFill=0;html=1;rounded=0;" parent="1" source="GWD56itQVeRUP17GlNMs-106" target="GWD56itQVeRUP17GlNMs-97" edge="1">
          <mxGeometry width="160" relative="1" as="geometry">
            <mxPoint x="-670" y="689" as="sourcePoint" />
            <mxPoint x="-704" y="32" as="targetPoint" />
            <Array as="points">
              <mxPoint x="-790" y="820" />
              <mxPoint x="-780" y="330" />
              <mxPoint x="-780" y="170" />
              <mxPoint x="-780" y="32" />
            </Array>
          </mxGeometry>
        </mxCell>
        <mxCell id="GWD56itQVeRUP17GlNMs-117" value="" style="endArrow=open;endSize=12;dashed=1;html=1;rounded=0;" parent="1" source="GWD56itQVeRUP17GlNMs-110" edge="1" target="GWD56itQVeRUP17GlNMs-84">
          <mxGeometry width="160" relative="1" as="geometry">
            <mxPoint x="560" y="440" as="sourcePoint" />
            <mxPoint x="2020" y="510" as="targetPoint" />
            <Array as="points">
              <mxPoint x="1920" y="510" />
            </Array>
          </mxGeometry>
        </mxCell>
        <mxCell id="HDJnY9Ae6gbhY3WdmB_N-1" value="" style="endArrow=open;endSize=12;dashed=1;html=1;rounded=0;" edge="1" parent="1" source="GWD56itQVeRUP17GlNMs-110" target="GWD56itQVeRUP17GlNMs-72">
          <mxGeometry width="160" relative="1" as="geometry">
            <mxPoint x="-350" y="527" as="sourcePoint" />
            <mxPoint x="1934" y="374" as="targetPoint" />
            <Array as="points">
              <mxPoint x="950" y="520" />
            </Array>
          </mxGeometry>
        </mxCell>
        <mxCell id="HDJnY9Ae6gbhY3WdmB_N-2" value="" style="endArrow=open;endSize=12;dashed=1;html=1;rounded=0;" edge="1" parent="1" source="GWD56itQVeRUP17GlNMs-110" target="GWD56itQVeRUP17GlNMs-19">
          <mxGeometry width="160" relative="1" as="geometry">
            <mxPoint x="-340" y="537" as="sourcePoint" />
            <mxPoint x="995" y="250" as="targetPoint" />
            <Array as="points">
              <mxPoint x="-40" y="530" />
            </Array>
          </mxGeometry>
        </mxCell>
        <mxCell id="HDJnY9Ae6gbhY3WdmB_N-3" value="" style="endArrow=open;endSize=12;dashed=1;html=1;rounded=0;" edge="1" parent="1" source="GWD56itQVeRUP17GlNMs-102" target="GWD56itQVeRUP17GlNMs-22">
          <mxGeometry width="160" relative="1" as="geometry">
            <mxPoint x="-350" y="531" as="sourcePoint" />
            <mxPoint x="-8" y="370" as="targetPoint" />
            <Array as="points">
              <mxPoint x="260" y="710" />
            </Array>
          </mxGeometry>
        </mxCell>
        <mxCell id="HDJnY9Ae6gbhY3WdmB_N-4" value="" style="endArrow=open;endSize=12;dashed=1;html=1;rounded=0;" edge="1" parent="1" source="GWD56itQVeRUP17GlNMs-102" target="GWD56itQVeRUP17GlNMs-74">
          <mxGeometry width="160" relative="1" as="geometry">
            <mxPoint x="-350" y="718" as="sourcePoint" />
            <mxPoint x="279" y="370" as="targetPoint" />
            <Array as="points">
              <mxPoint x="1210" y="720" />
            </Array>
          </mxGeometry>
        </mxCell>
        <mxCell id="HDJnY9Ae6gbhY3WdmB_N-5" value="" style="endArrow=open;endSize=12;dashed=1;html=1;rounded=0;" edge="1" parent="1" source="GWD56itQVeRUP17GlNMs-102" target="GWD56itQVeRUP17GlNMs-86">
          <mxGeometry width="160" relative="1" as="geometry">
            <mxPoint x="-350" y="718" as="sourcePoint" />
            <mxPoint x="1215" y="326" as="targetPoint" />
            <Array as="points">
              <mxPoint x="2165" y="720" />
            </Array>
          </mxGeometry>
        </mxCell>
        <mxCell id="HDJnY9Ae6gbhY3WdmB_N-6" value="" style="endArrow=open;endSize=12;dashed=1;html=1;rounded=0;" edge="1" parent="1" source="GWD56itQVeRUP17GlNMs-106" target="GWD56itQVeRUP17GlNMs-25">
          <mxGeometry width="160" relative="1" as="geometry">
            <mxPoint x="-324.5" y="918" as="sourcePoint" />
            <mxPoint x="304.5" y="570" as="targetPoint" />
            <Array as="points">
              <mxPoint x="560" y="900" />
            </Array>
          </mxGeometry>
        </mxCell>
        <mxCell id="HDJnY9Ae6gbhY3WdmB_N-7" value="" style="endArrow=open;endSize=12;dashed=1;html=1;rounded=0;" edge="1" parent="1" source="GWD56itQVeRUP17GlNMs-106" target="GWD56itQVeRUP17GlNMs-76">
          <mxGeometry width="160" relative="1" as="geometry">
            <mxPoint x="-350" y="907" as="sourcePoint" />
            <mxPoint x="563" y="370" as="targetPoint" />
            <Array as="points">
              <mxPoint x="1450" y="920" />
            </Array>
          </mxGeometry>
        </mxCell>
        <mxCell id="HDJnY9Ae6gbhY3WdmB_N-8" value="" style="endArrow=open;endSize=12;dashed=1;html=1;rounded=0;" edge="1" parent="1" source="GWD56itQVeRUP17GlNMs-106" target="GWD56itQVeRUP17GlNMs-88">
          <mxGeometry width="160" relative="1" as="geometry">
            <mxPoint x="-350" y="909" as="sourcePoint" />
            <mxPoint x="1446" y="326" as="targetPoint" />
            <Array as="points">
              <mxPoint x="2400" y="920" />
            </Array>
          </mxGeometry>
        </mxCell>
        <mxCell id="HDJnY9Ae6gbhY3WdmB_N-9" value="&lt;b&gt;&lt;i&gt;generateProgram&lt;/i&gt;&lt;/b&gt;" style="swimlane;fontStyle=0;childLayout=stackLayout;horizontal=1;startSize=26;fillColor=none;horizontalStack=0;resizeParent=1;resizeParentMax=0;resizeLast=0;collapsible=1;marginBottom=0;whiteSpace=wrap;html=1;" vertex="1" parent="1">
          <mxGeometry x="-390" y="-880" width="310" height="114" as="geometry" />
        </mxCell>
        <mxCell id="HDJnY9Ae6gbhY3WdmB_N-10" value="&lt;i&gt;+ ~AbstactFactory()&lt;/i&gt;" style="text;strokeColor=none;fillColor=none;align=left;verticalAlign=top;spacingLeft=4;spacingRight=4;overflow=hidden;rotatable=0;points=[[0,0.5],[1,0.5]];portConstraint=eastwest;whiteSpace=wrap;html=1;" vertex="1" parent="HDJnY9Ae6gbhY3WdmB_N-9">
          <mxGeometry y="26" width="310" height="44" as="geometry" />
        </mxCell>
        <mxCell id="HDJnY9Ae6gbhY3WdmB_N-11" value="&lt;i&gt;+ CreateClass(name: string): shared_ptr&amp;lt;Unit&amp;gt;&lt;/i&gt;" style="text;strokeColor=none;fillColor=none;align=left;verticalAlign=top;spacingLeft=4;spacingRight=4;overflow=hidden;rotatable=0;points=[[0,0.5],[1,0.5]];portConstraint=eastwest;whiteSpace=wrap;html=1;" vertex="1" parent="HDJnY9Ae6gbhY3WdmB_N-9">
          <mxGeometry y="70" width="310" height="44" as="geometry" />
        </mxCell>
        <mxCell id="HDJnY9Ae6gbhY3WdmB_N-14" value="" style="endArrow=classic;html=1;rounded=0;" edge="1" parent="1" source="HDJnY9Ae6gbhY3WdmB_N-9" target="GWD56itQVeRUP17GlNMs-97">
          <mxGeometry width="50" height="50" relative="1" as="geometry">
            <mxPoint x="420" y="-360" as="sourcePoint" />
            <mxPoint x="470" y="-410" as="targetPoint" />
          </mxGeometry>
        </mxCell>
        <mxCell id="HDJnY9Ae6gbhY3WdmB_N-15" value="" style="endArrow=classic;html=1;rounded=0;" edge="1" parent="1" source="HDJnY9Ae6gbhY3WdmB_N-9" target="GWD56itQVeRUP17GlNMs-12">
          <mxGeometry width="50" height="50" relative="1" as="geometry">
            <mxPoint x="-268" y="-456" as="sourcePoint" />
            <mxPoint x="-160" y="-200" as="targetPoint" />
          </mxGeometry>
        </mxCell>
        <mxCell id="HDJnY9Ae6gbhY3WdmB_N-16" value="" style="endArrow=classic;html=1;rounded=0;" edge="1" parent="1" source="HDJnY9Ae6gbhY3WdmB_N-9" target="GWD56itQVeRUP17GlNMs-58">
          <mxGeometry width="50" height="50" relative="1" as="geometry">
            <mxPoint x="-186" y="-756" as="sourcePoint" />
            <mxPoint x="252" y="-110" as="targetPoint" />
          </mxGeometry>
        </mxCell>
        <mxCell id="HDJnY9Ae6gbhY3WdmB_N-17" value="" style="endArrow=classic;html=1;rounded=0;" edge="1" parent="1" source="HDJnY9Ae6gbhY3WdmB_N-9" target="GWD56itQVeRUP17GlNMs-81">
          <mxGeometry width="50" height="50" relative="1" as="geometry">
            <mxPoint x="-125" y="-756" as="sourcePoint" />
            <mxPoint x="2180" y="-810" as="targetPoint" />
            <Array as="points">
              <mxPoint x="2030" y="-810" />
            </Array>
          </mxGeometry>
        </mxCell>
      </root>
    </mxGraphModel>
  </diagram>
</mxfile>
